<svg xmlns="http://www.w3.org/2000/svg" fill="none" viewBox="0 0 24 24">
    <g fill="#9C2E35">
        <path fill-rule="evenodd" d="M9.418 5.983c-.406.218-.738.531-.934.886-.194.35-.284.806-.061 1.222.222.415.65.594 1.05.627.403.034.848-.068 1.255-.285.406-.217.738-.53.934-.886.194-.35.284-.805.062-1.221-.222-.416-.651-.594-1.05-.627-.404-.035-.849.067-1.256.284ZM9.304 7.62c-.009-.017-.038-.098.055-.266.09-.163.27-.348.53-.488a1.31 1.31 0 0 1 .701-.17c.191.016.243.085.252.102.01.018.038.099-.055.267a1.31 1.31 0 0 1-.53.487 1.31 1.31 0 0 1-.7.17c-.192-.015-.243-.084-.253-.102Z" clip-rule="evenodd"/>
        <path d="M8 15c.552 0 1-.224 1-.5s-.448-.5-1-.5-1 .224-1 .5.448.5 1 .5ZM14.5 18a.5.5 0 1 0 0-1 .5.5 0 0 0 0 1Z"/>
        <path fill-rule="evenodd" d="M12 3.5a8.5 8.5 0 1 0 0 17 8.5 8.5 0 0 0 0-17Zm-7.422 7.413a7.502 7.502 0 0 1 14.893 1.746c-1.073.38-3.431 1.114-6.408.736a.5.5 0 0 0-.126.992c2.784.354 5.065-.199 6.351-.61A7.5 7.5 0 0 1 4.5 12.07c.31.241.766.429 1.5.429a.5.5 0 0 0 0-1c-.668 0-1.162-.33-1.422-.587Z" clip-rule="evenodd"/>
    </g>
</svg>